<mxfile host="app.diagrams.net" modified="2022-01-13T04:43:57.334Z" agent="5.0 (Windows NT 10.0; WOW64) AppleWebKit/537.36 (KHTML, like Gecko) Chrome/95.0.4638.84 Safari/537.36" etag="X3b_oFM_XocHlqznFWim" version="16.1.2" type="github">
  <diagram id="prtHgNgQTEPvFCAcTncT" name="Page-1">
    <mxGraphModel dx="4272" dy="1925" grid="1" gridSize="10" guides="1" tooltips="1" connect="1" arrows="1" fold="1" page="1" pageScale="1" pageWidth="827" pageHeight="1169" math="0" shadow="0">
      <root>
        <mxCell id="0" />
        <mxCell id="1" parent="0" />
        <mxCell id="Qm_iaEk9l_Cz0abTHxug-14" value="Calendar/Schedule" style="swimlane;html=1;childLayout=stackLayout;resizeParent=1;resizeParentMax=0;horizontal=1;startSize=20;horizontalStack=0;" vertex="1" parent="1">
          <mxGeometry x="-760" y="50" width="820" height="990" as="geometry" />
        </mxCell>
        <mxCell id="Qm_iaEk9l_Cz0abTHxug-15" value="Organizer" style="swimlane;html=1;startSize=20;horizontal=0;" vertex="1" parent="Qm_iaEk9l_Cz0abTHxug-14">
          <mxGeometry y="20" width="820" height="400" as="geometry" />
        </mxCell>
        <mxCell id="Qm_iaEk9l_Cz0abTHxug-1" value="" style="ellipse;whiteSpace=wrap;html=1;aspect=fixed;" vertex="1" parent="Qm_iaEk9l_Cz0abTHxug-15">
          <mxGeometry x="50" y="55" width="30" height="30" as="geometry" />
        </mxCell>
        <mxCell id="Qm_iaEk9l_Cz0abTHxug-42" style="edgeStyle=orthogonalEdgeStyle;rounded=0;orthogonalLoop=1;jettySize=auto;html=1;exitX=1;exitY=0.5;exitDx=0;exitDy=0;entryX=0;entryY=0.5;entryDx=0;entryDy=0;entryPerimeter=0;" edge="1" parent="Qm_iaEk9l_Cz0abTHxug-15" source="Qm_iaEk9l_Cz0abTHxug-2" target="Qm_iaEk9l_Cz0abTHxug-40">
          <mxGeometry relative="1" as="geometry" />
        </mxCell>
        <mxCell id="Qm_iaEk9l_Cz0abTHxug-2" value="Create new event/schedule" style="rounded=1;whiteSpace=wrap;html=1;" vertex="1" parent="Qm_iaEk9l_Cz0abTHxug-15">
          <mxGeometry x="120" y="40" width="120" height="60" as="geometry" />
        </mxCell>
        <mxCell id="Qm_iaEk9l_Cz0abTHxug-3" style="edgeStyle=orthogonalEdgeStyle;rounded=0;orthogonalLoop=1;jettySize=auto;html=1;exitX=1;exitY=0.5;exitDx=0;exitDy=0;entryX=0;entryY=0.5;entryDx=0;entryDy=0;" edge="1" parent="Qm_iaEk9l_Cz0abTHxug-15" source="Qm_iaEk9l_Cz0abTHxug-1" target="Qm_iaEk9l_Cz0abTHxug-2">
          <mxGeometry relative="1" as="geometry" />
        </mxCell>
        <mxCell id="Qm_iaEk9l_Cz0abTHxug-43" style="edgeStyle=orthogonalEdgeStyle;rounded=0;orthogonalLoop=1;jettySize=auto;html=1;exitX=1;exitY=0.5;exitDx=0;exitDy=0;exitPerimeter=0;" edge="1" parent="Qm_iaEk9l_Cz0abTHxug-15" source="Qm_iaEk9l_Cz0abTHxug-40" target="Qm_iaEk9l_Cz0abTHxug-41">
          <mxGeometry relative="1" as="geometry" />
        </mxCell>
        <mxCell id="Qm_iaEk9l_Cz0abTHxug-40" value="" style="points=[[0.25,0.25,0],[0.5,0,0],[0.75,0.25,0],[1,0.5,0],[0.75,0.75,0],[0.5,1,0],[0.25,0.75,0],[0,0.5,0]];shape=mxgraph.bpmn.gateway2;html=1;verticalLabelPosition=bottom;labelBackgroundColor=#ffffff;verticalAlign=top;align=center;perimeter=rhombusPerimeter;outlineConnect=0;outline=none;symbol=none;gwType=parallel;" vertex="1" parent="Qm_iaEk9l_Cz0abTHxug-15">
          <mxGeometry x="280" y="45" width="50" height="50" as="geometry" />
        </mxCell>
        <mxCell id="Qm_iaEk9l_Cz0abTHxug-41" value="Create new event/schedule" style="rounded=1;whiteSpace=wrap;html=1;" vertex="1" parent="Qm_iaEk9l_Cz0abTHxug-15">
          <mxGeometry x="370" y="40" width="120" height="60" as="geometry" />
        </mxCell>
        <mxCell id="Qm_iaEk9l_Cz0abTHxug-16" value="System" style="swimlane;html=1;startSize=20;horizontal=0;" vertex="1" parent="Qm_iaEk9l_Cz0abTHxug-14">
          <mxGeometry y="420" width="820" height="120" as="geometry" />
        </mxCell>
        <mxCell id="Qm_iaEk9l_Cz0abTHxug-17" value="Invitees" style="swimlane;html=1;startSize=20;horizontal=0;" vertex="1" parent="Qm_iaEk9l_Cz0abTHxug-14">
          <mxGeometry y="540" width="820" height="450" as="geometry" />
        </mxCell>
        <mxCell id="Qm_iaEk9l_Cz0abTHxug-25" style="edgeStyle=orthogonalEdgeStyle;rounded=0;orthogonalLoop=1;jettySize=auto;html=1;exitX=1;exitY=0.5;exitDx=0;exitDy=0;entryX=0;entryY=0.5;entryDx=0;entryDy=0;entryPerimeter=0;" edge="1" parent="Qm_iaEk9l_Cz0abTHxug-17" source="Qm_iaEk9l_Cz0abTHxug-22" target="Qm_iaEk9l_Cz0abTHxug-24">
          <mxGeometry relative="1" as="geometry" />
        </mxCell>
        <mxCell id="Qm_iaEk9l_Cz0abTHxug-22" value="Receive invitation: individual/group/&lt;br&gt;channel/individuals" style="rounded=1;whiteSpace=wrap;html=1;" vertex="1" parent="Qm_iaEk9l_Cz0abTHxug-17">
          <mxGeometry x="120" y="50" width="120" height="60" as="geometry" />
        </mxCell>
        <mxCell id="Qm_iaEk9l_Cz0abTHxug-27" style="edgeStyle=orthogonalEdgeStyle;rounded=0;orthogonalLoop=1;jettySize=auto;html=1;exitX=1;exitY=0.5;exitDx=0;exitDy=0;exitPerimeter=0;entryX=0;entryY=0.5;entryDx=0;entryDy=0;" edge="1" parent="Qm_iaEk9l_Cz0abTHxug-17" source="Qm_iaEk9l_Cz0abTHxug-24" target="Qm_iaEk9l_Cz0abTHxug-26">
          <mxGeometry relative="1" as="geometry" />
        </mxCell>
        <mxCell id="Qm_iaEk9l_Cz0abTHxug-34" value="Accept" style="edgeLabel;html=1;align=center;verticalAlign=middle;resizable=0;points=[];" vertex="1" connectable="0" parent="Qm_iaEk9l_Cz0abTHxug-27">
          <mxGeometry x="-0.066" relative="1" as="geometry">
            <mxPoint as="offset" />
          </mxGeometry>
        </mxCell>
        <mxCell id="Qm_iaEk9l_Cz0abTHxug-29" style="edgeStyle=orthogonalEdgeStyle;rounded=0;orthogonalLoop=1;jettySize=auto;html=1;exitX=0.5;exitY=1;exitDx=0;exitDy=0;exitPerimeter=0;entryX=0;entryY=0.5;entryDx=0;entryDy=0;" edge="1" parent="Qm_iaEk9l_Cz0abTHxug-17" source="Qm_iaEk9l_Cz0abTHxug-24" target="Qm_iaEk9l_Cz0abTHxug-28">
          <mxGeometry relative="1" as="geometry" />
        </mxCell>
        <mxCell id="Qm_iaEk9l_Cz0abTHxug-35" value="Deny" style="edgeLabel;html=1;align=center;verticalAlign=middle;resizable=0;points=[];" vertex="1" connectable="0" parent="Qm_iaEk9l_Cz0abTHxug-29">
          <mxGeometry x="0.4214" y="2" relative="1" as="geometry">
            <mxPoint as="offset" />
          </mxGeometry>
        </mxCell>
        <mxCell id="Qm_iaEk9l_Cz0abTHxug-31" style="edgeStyle=orthogonalEdgeStyle;rounded=0;orthogonalLoop=1;jettySize=auto;html=1;exitX=0.5;exitY=1;exitDx=0;exitDy=0;exitPerimeter=0;entryX=0;entryY=0.5;entryDx=0;entryDy=0;" edge="1" parent="Qm_iaEk9l_Cz0abTHxug-17" source="Qm_iaEk9l_Cz0abTHxug-24" target="Qm_iaEk9l_Cz0abTHxug-30">
          <mxGeometry relative="1" as="geometry" />
        </mxCell>
        <mxCell id="Qm_iaEk9l_Cz0abTHxug-36" value="Maybe" style="edgeLabel;html=1;align=center;verticalAlign=middle;resizable=0;points=[];" vertex="1" connectable="0" parent="Qm_iaEk9l_Cz0abTHxug-31">
          <mxGeometry x="0.5746" y="2" relative="1" as="geometry">
            <mxPoint as="offset" />
          </mxGeometry>
        </mxCell>
        <mxCell id="Qm_iaEk9l_Cz0abTHxug-33" style="edgeStyle=orthogonalEdgeStyle;rounded=0;orthogonalLoop=1;jettySize=auto;html=1;exitX=0.5;exitY=1;exitDx=0;exitDy=0;exitPerimeter=0;entryX=0;entryY=0.5;entryDx=0;entryDy=0;" edge="1" parent="Qm_iaEk9l_Cz0abTHxug-17" source="Qm_iaEk9l_Cz0abTHxug-24" target="Qm_iaEk9l_Cz0abTHxug-32">
          <mxGeometry relative="1" as="geometry" />
        </mxCell>
        <mxCell id="Qm_iaEk9l_Cz0abTHxug-37" value="Not Response" style="edgeLabel;html=1;align=center;verticalAlign=middle;resizable=0;points=[];" vertex="1" connectable="0" parent="Qm_iaEk9l_Cz0abTHxug-33">
          <mxGeometry x="0.6547" y="2" relative="1" as="geometry">
            <mxPoint as="offset" />
          </mxGeometry>
        </mxCell>
        <mxCell id="Qm_iaEk9l_Cz0abTHxug-24" value="" style="points=[[0.25,0.25,0],[0.5,0,0],[0.75,0.25,0],[1,0.5,0],[0.75,0.75,0],[0.5,1,0],[0.25,0.75,0],[0,0.5,0]];shape=mxgraph.bpmn.gateway2;html=1;verticalLabelPosition=bottom;labelBackgroundColor=#ffffff;verticalAlign=top;align=center;perimeter=rhombusPerimeter;outlineConnect=0;outline=none;symbol=none;gwType=exclusive;" vertex="1" parent="Qm_iaEk9l_Cz0abTHxug-17">
          <mxGeometry x="280" y="55" width="50" height="50" as="geometry" />
        </mxCell>
        <mxCell id="Qm_iaEk9l_Cz0abTHxug-26" value="Receive invitation: individual/group/&lt;br&gt;channel/individuals" style="rounded=1;whiteSpace=wrap;html=1;" vertex="1" parent="Qm_iaEk9l_Cz0abTHxug-17">
          <mxGeometry x="480" y="50" width="120" height="60" as="geometry" />
        </mxCell>
        <mxCell id="Qm_iaEk9l_Cz0abTHxug-28" value="Receive invitation: individual/group/&lt;br&gt;channel/individuals" style="rounded=1;whiteSpace=wrap;html=1;" vertex="1" parent="Qm_iaEk9l_Cz0abTHxug-17">
          <mxGeometry x="480" y="150" width="120" height="60" as="geometry" />
        </mxCell>
        <mxCell id="Qm_iaEk9l_Cz0abTHxug-30" value="Receive invitation: individual/group/&lt;br&gt;channel/individuals" style="rounded=1;whiteSpace=wrap;html=1;" vertex="1" parent="Qm_iaEk9l_Cz0abTHxug-17">
          <mxGeometry x="480" y="240" width="120" height="60" as="geometry" />
        </mxCell>
        <mxCell id="Qm_iaEk9l_Cz0abTHxug-32" value="Receive invitation: individual/group/&lt;br&gt;channel/individuals" style="rounded=1;whiteSpace=wrap;html=1;" vertex="1" parent="Qm_iaEk9l_Cz0abTHxug-17">
          <mxGeometry x="480" y="330" width="120" height="60" as="geometry" />
        </mxCell>
      </root>
    </mxGraphModel>
  </diagram>
</mxfile>
